<svg width="24" height="24" viewBox="0 0 24 24" fill="none" xmlns="http://www.w3.org/2000/svg">
<rect width="24" height="24" rx="12" fill="#7D3EE3"/>
<g clip-path="url(#clip0_185_6619)">
<path d="M16.0833 9.24992C15.7917 9.08325 15.4167 9.08325 15.0833 9.24992L12.75 10.6249L11.1667 11.4999L8.875 12.8749C8.58333 13.0416 8.20833 13.0416 7.875 12.8749L6.08333 11.7916C5.79167 11.6249 5.58333 11.2916 5.58333 10.9166V8.83325C5.58333 8.49992 5.75 8.16658 6.08333 7.95825L7.875 6.91658C8.16667 6.74992 8.54167 6.74992 8.875 6.91658L10.6667 7.99992C10.9583 8.16658 11.1667 8.49992 11.1667 8.87492V10.2499L12.75 9.33325V7.91658C12.75 7.58325 12.5833 7.24992 12.25 7.04158L8.91667 5.08325C8.625 4.91659 8.25 4.91659 7.91667 5.08325L4.5 7.08325C4.16667 7.24992 4 7.58325 4 7.91658V11.8333C4 12.1666 4.16667 12.4999 4.5 12.7083L7.875 14.6666C8.16667 14.8333 8.54167 14.8333 8.875 14.6666L11.1667 13.3333L12.75 12.4166L15.0417 11.0833C15.3333 10.9166 15.7083 10.9166 16.0417 11.0833L17.8333 12.1249C18.125 12.2916 18.3333 12.6249 18.3333 12.9999V15.0833C18.3333 15.4166 18.1667 15.7499 17.8333 15.9583L16.0833 16.9999C15.7917 17.1666 15.4167 17.1666 15.0833 16.9999L13.2917 15.9583C13 15.7916 12.7917 15.4583 12.7917 15.0833V13.7499L11.2083 14.6666V16.0416C11.2083 16.3749 11.375 16.7083 11.7083 16.9166L15.0833 18.8749C15.375 19.0416 15.75 19.0416 16.0833 18.8749L19.4583 16.9166C19.75 16.7499 19.9583 16.4166 19.9583 16.0416V12.0833C19.9583 11.7499 19.7917 11.4166 19.4583 11.2083L16.0833 9.24992Z" fill="white"/>
</g>
<defs>
<clipPath id="clip0_185_6619">
<rect width="16" height="13.9583" fill="white" transform="translate(4 5)"/>
</clipPath>
</defs>
</svg>
