<svg width="18" height="19" viewBox="0 0 18 19" fill="none" xmlns="http://www.w3.org/2000/svg">
<rect y="0.5" width="18" height="18" rx="9" fill="#9747FF"/>
<path d="M4.41486 6.41409L6.6257 6.45492C6.92903 6.46076 7.33153 6.26826 7.51236 6.02326L8.60903 4.57659C9.30903 3.64909 10.1665 3.80076 10.5165 4.90909L11.1057 6.79326C11.2049 7.10826 11.549 7.44076 11.8699 7.52242L13.5849 7.97159C14.9382 8.32742 15.0724 9.21409 13.8824 9.94909L12.2199 10.9758C11.9165 11.1624 11.689 11.6058 11.7065 11.9558L11.8057 13.9041C11.8757 15.2983 11.0707 15.6949 10.009 14.7849L8.66736 13.6299C8.41653 13.4141 7.94986 13.3149 7.63486 13.4141L5.74486 14.0091C4.63653 14.3533 4.02403 13.7349 4.3857 12.6324L4.95153 10.9116C5.04486 10.6199 4.9807 10.1824 4.79986 9.93742L3.50486 8.14076C2.8107 7.16659 3.21903 6.39076 4.41486 6.41409Z" fill="white"/>
<path d="M13.9408 3.9934L12.1733 5.7609C12.0041 5.93006 12.0041 6.21006 12.1733 6.37923C12.3424 6.5484 12.6224 6.5484 12.7916 6.37923L14.5591 4.61173C14.6466 4.52423 14.6874 4.4134 14.6874 4.30256C14.6874 4.19173 14.6466 4.0809 14.5591 3.9934C14.3899 3.82423 14.1099 3.82423 13.9408 3.9934Z" fill="white"/>
</svg>
