<svg width="14" height="15" viewBox="0 0 14 15" fill="none" xmlns="http://www.w3.org/2000/svg">
<path d="M6.99984 1.66675C3.78567 1.66675 1.1665 4.28591 1.1665 7.50008C1.1665 10.7142 3.78567 13.3334 6.99984 13.3334C10.214 13.3334 12.8332 10.7142 12.8332 7.50008C12.8332 4.28591 10.214 1.66675 6.99984 1.66675ZM9.53734 9.58258C9.45567 9.72258 9.30984 9.79841 9.15817 9.79841C9.08234 9.79841 9.0065 9.78091 8.9365 9.73425L7.12817 8.65508C6.679 8.38675 6.3465 7.79758 6.3465 7.27841V4.88675C6.3465 4.64758 6.54484 4.44925 6.784 4.44925C7.02317 4.44925 7.2215 4.64758 7.2215 4.88675V7.27841C7.2215 7.48841 7.3965 7.79758 7.57734 7.90258L9.38567 8.98175C9.59567 9.10425 9.66567 9.37258 9.53734 9.58258Z" fill="white"/>
</svg>
