<svg width="14" height="15" viewBox="0 0 14 15" fill="none" xmlns="http://www.w3.org/2000/svg">
<path d="M12.7867 10.2708C12.5942 11.8224 11.3226 13.0941 9.77092 13.2866C8.83175 13.4033 7.95675 13.1466 7.27425 12.6449C6.88342 12.3591 6.97675 11.7524 7.44342 11.6124C9.19925 11.0816 10.5817 9.69327 11.1184 7.93743C11.2584 7.4766 11.8651 7.38327 12.1509 7.76827C12.6467 8.4566 12.9034 9.3316 12.7867 10.2708Z" fill="#1C1D22"/>
<path d="M5.82734 1.66675C3.25484 1.66675 1.1665 3.75508 1.1665 6.32758C1.1665 8.90008 3.25484 10.9884 5.82734 10.9884C8.39984 10.9884 10.4882 8.90008 10.4882 6.32758C10.4823 3.75508 8.39984 1.66675 5.82734 1.66675ZM5.279 5.67425L6.68484 6.16425C7.19234 6.34508 7.43734 6.70091 7.43734 7.24925C7.43734 7.87925 6.93567 8.39841 6.32317 8.39841H6.27067V8.42758C6.27067 8.66675 6.07234 8.86508 5.83317 8.86508C5.594 8.86508 5.39567 8.66675 5.39567 8.42758V8.39258C4.74817 8.36341 4.229 7.82091 4.229 7.14425C4.229 6.90508 4.42734 6.70675 4.6665 6.70675C4.90567 6.70675 5.104 6.90508 5.104 7.14425C5.104 7.35425 5.25567 7.52341 5.44234 7.52341H6.31734C6.4515 7.52341 6.5565 7.40091 6.5565 7.24925C6.5565 7.04508 6.5215 7.03341 6.38734 6.98675L4.9815 6.49675C4.47984 6.32175 4.229 5.96591 4.229 5.41175C4.229 4.78175 4.73067 4.26258 5.34317 4.26258H5.39567V4.23925C5.39567 4.00008 5.594 3.80175 5.83317 3.80175C6.07234 3.80175 6.27067 4.00008 6.27067 4.23925V4.27425C6.91817 4.30341 7.43734 4.84591 7.43734 5.52258C7.43734 5.76175 7.239 5.96008 6.99984 5.96008C6.76067 5.96008 6.56234 5.76175 6.56234 5.52258C6.56234 5.31258 6.41067 5.14341 6.224 5.14341H5.349C5.21484 5.14341 5.10984 5.26591 5.10984 5.41758C5.104 5.61591 5.139 5.62758 5.279 5.67425Z" fill="#1C1D22"/>
</svg>
