<svg width="10" height="13" viewBox="0 0 10 13" fill="none" xmlns="http://www.w3.org/2000/svg">
<path d="M8.81497 1.90341L5.60663 0.701738C5.27413 0.579238 4.73163 0.579238 4.39913 0.701738L1.1908 1.90341C0.572467 2.13674 0.0708008 2.86007 0.0708008 3.51924V8.24424C0.0708008 8.71674 0.379967 9.34091 0.759134 9.62091L3.96747 12.0184C4.5333 12.4442 5.4608 12.4442 6.02663 12.0184L9.23497 9.62091C9.61413 9.33507 9.9233 8.71674 9.9233 8.24424V3.51924C9.92913 2.86007 9.42747 2.13674 8.81497 1.90341ZM7.02997 5.17007L4.52163 7.67841C4.43413 7.76591 4.3233 7.80674 4.21247 7.80674C4.10163 7.80674 3.9908 7.76591 3.9033 7.67841L2.96997 6.73341C2.8008 6.56424 2.8008 6.28424 2.96997 6.11507C3.13913 5.94591 3.41913 5.94591 3.5883 6.11507L4.2183 6.74507L6.41747 4.5459C6.58663 4.37674 6.86663 4.37674 7.0358 4.5459C7.20497 4.71507 7.20497 5.00091 7.02997 5.17007Z" fill="white"/>
</svg>
