<svg width="14" height="15" viewBox="0 0 14 15" fill="none" xmlns="http://www.w3.org/2000/svg">
<path d="M5.43647 8.24677H7.23897V12.4468C7.23897 13.0651 8.00897 13.3568 8.4173 12.8901L12.8331 7.87344C13.2181 7.43594 12.909 6.75344 12.3256 6.75344H10.5231V2.55344C10.5231 1.9351 9.75313 1.64344 9.3448 2.1101L4.92897 7.12677C4.5498 7.56427 4.85897 8.24677 5.43647 8.24677Z" fill="#1C1D22"/>
<path d="M4.95833 3.27075H0.875C0.635833 3.27075 0.4375 3.07242 0.4375 2.83325C0.4375 2.59409 0.635833 2.39575 0.875 2.39575H4.95833C5.1975 2.39575 5.39583 2.59409 5.39583 2.83325C5.39583 3.07242 5.1975 3.27075 4.95833 3.27075Z" fill="#1C1D22"/>
<path d="M4.375 12.6042H0.875C0.635833 12.6042 0.4375 12.4059 0.4375 12.1667C0.4375 11.9276 0.635833 11.7292 0.875 11.7292H4.375C4.61417 11.7292 4.8125 11.9276 4.8125 12.1667C4.8125 12.4059 4.61417 12.6042 4.375 12.6042Z" fill="#1C1D22"/>
<path d="M2.625 7.9375H0.875C0.635833 7.9375 0.4375 7.73917 0.4375 7.5C0.4375 7.26083 0.635833 7.0625 0.875 7.0625H2.625C2.86417 7.0625 3.0625 7.26083 3.0625 7.5C3.0625 7.73917 2.86417 7.9375 2.625 7.9375Z" fill="#1C1D22"/>
</svg>
