<svg width="16" height="17" viewBox="0 0 16 17" fill="none" xmlns="http://www.w3.org/2000/svg">
<path d="M8.00016 1.83325C4.32683 1.83325 1.3335 4.82659 1.3335 8.49992C1.3335 12.1733 4.32683 15.1666 8.00016 15.1666C11.6735 15.1666 14.6668 12.1733 14.6668 8.49992C14.6668 4.82659 11.6735 1.83325 8.00016 1.83325ZM7.50016 5.83325C7.50016 5.55992 7.72683 5.33325 8.00016 5.33325C8.2735 5.33325 8.50016 5.55992 8.50016 5.83325V9.16659C8.50016 9.43992 8.2735 9.66659 8.00016 9.66659C7.72683 9.66659 7.50016 9.43992 7.50016 9.16659V5.83325ZM8.6135 11.4199C8.58016 11.5066 8.5335 11.5733 8.4735 11.6399C8.40683 11.6999 8.3335 11.7466 8.2535 11.7799C8.1735 11.8133 8.08683 11.8333 8.00016 11.8333C7.9135 11.8333 7.82683 11.8133 7.74683 11.7799C7.66683 11.7466 7.5935 11.6999 7.52683 11.6399C7.46683 11.5733 7.42016 11.5066 7.38683 11.4199C7.3535 11.3399 7.3335 11.2533 7.3335 11.1666C7.3335 11.0799 7.3535 10.9933 7.38683 10.9133C7.42016 10.8333 7.46683 10.7599 7.52683 10.6933C7.5935 10.6333 7.66683 10.5866 7.74683 10.5533C7.90683 10.4866 8.0935 10.4866 8.2535 10.5533C8.3335 10.5866 8.40683 10.6333 8.4735 10.6933C8.5335 10.7599 8.58016 10.8333 8.6135 10.9133C8.64683 10.9933 8.66683 11.0799 8.66683 11.1666C8.66683 11.2533 8.64683 11.3399 8.6135 11.4199Z" fill="#888888"/>
</svg>
