<svg width="14" height="15" viewBox="0 0 14 15" fill="none" xmlns="http://www.w3.org/2000/svg">
<path d="M13.0315 5.94258L11.8648 5.35925C11.649 5.25425 11.3807 5.33591 11.2757 5.55175C11.1648 5.77341 11.2523 6.03591 11.4682 6.14091L12.3957 6.60175V9.39591L10.2082 9.40175V3.41675C10.2082 2.25008 9.4265 1.66675 8.45817 1.66675H3.7915C2.82317 1.66675 2.0415 2.25008 2.0415 3.41675V12.8959H1.1665C0.927337 12.8959 0.729004 13.0942 0.729004 13.3334C0.729004 13.5726 0.927337 13.7709 1.1665 13.7709H11.0832C11.3223 13.7709 11.5207 13.5726 11.5207 13.3334C11.5207 13.0942 11.3223 12.8959 11.0832 12.8959H10.2082V10.2767L12.8332 10.2709C13.0782 10.2709 13.2707 10.0726 13.2707 9.83341V6.33341C13.2707 6.17008 13.1773 6.01841 13.0315 5.94258ZM3.49984 4.51925C3.49984 3.70841 3.99567 3.41675 4.60234 3.41675H7.65317C8.254 3.41675 8.74984 3.70841 8.74984 4.51925V5.23675C8.74984 6.04175 8.254 6.33341 7.64734 6.33341H4.60234C3.99567 6.33341 3.49984 6.04175 3.49984 5.23091V4.51925ZM3.7915 7.64591H5.5415C5.78067 7.64591 5.979 7.84425 5.979 8.08341C5.979 8.32258 5.78067 8.52091 5.5415 8.52091H3.7915C3.55234 8.52091 3.354 8.32258 3.354 8.08341C3.354 7.84425 3.55234 7.64591 3.7915 7.64591Z" fill="white"/>
</svg>
