<svg width="16" height="16" viewBox="0 0 16 16" fill="none" xmlns="http://www.w3.org/2000/svg">
<path d="M13.4002 6.14679C12.1935 6.14679 11.7002 5.29345 12.3002 4.24679C12.6468 3.64012 12.4402 2.86679 11.8335 2.52012L10.6802 1.86012C10.1535 1.54679 9.4735 1.73345 9.16016 2.26012L9.08683 2.38679C8.48683 3.43345 7.50016 3.43345 6.8935 2.38679L6.82016 2.26012C6.52016 1.73345 5.84016 1.54679 5.3135 1.86012L4.16016 2.52012C3.5535 2.86679 3.34683 3.64679 3.6935 4.25345C4.30016 5.29345 3.80683 6.14679 2.60016 6.14679C1.90683 6.14679 1.3335 6.71345 1.3335 7.41345V8.58679C1.3335 9.28012 1.90016 9.85345 2.60016 9.85345C3.80683 9.85345 4.30016 10.7068 3.6935 11.7535C3.34683 12.3601 3.5535 13.1335 4.16016 13.4801L5.3135 14.1401C5.84016 14.4535 6.52016 14.2668 6.8335 13.7401L6.90683 13.6135C7.50683 12.5668 8.4935 12.5668 9.10016 13.6135L9.1735 13.7401C9.48683 14.2668 10.1668 14.4535 10.6935 14.1401L11.8468 13.4801C12.4535 13.1335 12.6602 12.3535 12.3135 11.7535C11.7068 10.7068 12.2002 9.85345 13.4068 9.85345C14.1002 9.85345 14.6735 9.28679 14.6735 8.58679V7.41345C14.6668 6.72012 14.1002 6.14679 13.4002 6.14679ZM8.00016 10.1668C6.80683 10.1668 5.8335 9.19345 5.8335 8.00012C5.8335 6.80679 6.80683 5.83345 8.00016 5.83345C9.1935 5.83345 10.1668 6.80679 10.1668 8.00012C10.1668 9.19345 9.1935 10.1668 8.00016 10.1668Z" fill="white"/>
</svg>
