<svg width="14" height="15" viewBox="0 0 14 15" fill="none" xmlns="http://www.w3.org/2000/svg">
<path d="M7.4375 9.78677H7.81667C8.19583 9.78677 8.51083 9.44843 8.51083 9.0401C8.51083 8.5326 8.33 8.43343 8.0325 8.32843L7.44333 8.12427V9.78677H7.4375Z" fill="white"/>
<path d="M6.98238 1.60841C3.76238 1.62007 1.15488 4.23924 1.16654 7.45924C1.17821 10.6792 3.79738 13.2867 7.01738 13.2751C10.2374 13.2634 12.8449 10.6442 12.8332 7.42424C12.8215 4.20424 10.2024 1.60257 6.98238 1.60841ZM8.31821 7.50007C8.77321 7.65757 9.38571 7.99591 9.38571 9.04007C9.38571 9.93841 8.67988 10.6617 7.81654 10.6617H7.43738V11.0001C7.43738 11.2392 7.23904 11.4376 6.99988 11.4376C6.76071 11.4376 6.56238 11.2392 6.56238 11.0001V10.6617H6.35238C5.39571 10.6617 4.61988 9.85674 4.61988 8.86507C4.61988 8.62591 4.81821 8.42757 5.05738 8.42757C5.29654 8.42757 5.49488 8.62591 5.49488 8.86507C5.49488 9.37257 5.87988 9.78674 6.35238 9.78674H6.56238V7.81507L5.68154 7.50007C5.22654 7.34257 4.61404 7.00424 4.61404 5.96007C4.61404 5.06174 5.31988 4.33841 6.18321 4.33841H6.56238V4.00007C6.56238 3.76091 6.76071 3.56257 6.99988 3.56257C7.23904 3.56257 7.43738 3.76091 7.43738 4.00007V4.33841H7.64738C8.60404 4.33841 9.37988 5.14341 9.37988 6.13507C9.37988 6.37424 9.18154 6.57257 8.94238 6.57257C8.70321 6.57257 8.50488 6.37424 8.50488 6.13507C8.50488 5.62757 8.11988 5.21341 7.64738 5.21341H7.43738V7.18507L8.31821 7.50007Z" fill="white"/>
<path d="M5.49512 5.96588C5.49512 6.47338 5.67595 6.57255 5.97345 6.67755L6.56262 6.88171V5.21338H6.18345C5.80428 5.21338 5.49512 5.55171 5.49512 5.96588Z" fill="white"/>
</svg>
