<svg width="16" height="16" viewBox="0 0 16 16" fill="none" xmlns="http://www.w3.org/2000/svg">
<path d="M11.3335 1.62012H4.66683C2.66683 1.62012 1.3335 2.95345 1.3335 4.95345V8.95345C1.3335 10.9535 2.66683 12.2868 4.66683 12.2868V13.7068C4.66683 14.2401 5.26016 14.5601 5.70016 14.2601L8.66683 12.2868H11.3335C13.3335 12.2868 14.6668 10.9535 14.6668 8.95345V4.95345C14.6668 2.95345 13.3335 1.62012 11.3335 1.62012ZM8.00016 9.73345C7.72016 9.73345 7.50016 9.50678 7.50016 9.23345C7.50016 8.96012 7.72016 8.73345 8.00016 8.73345C8.28016 8.73345 8.50016 8.96012 8.50016 9.23345C8.50016 9.50678 8.28016 9.73345 8.00016 9.73345ZM8.84016 6.96678C8.58016 7.14012 8.50016 7.25345 8.50016 7.44012V7.58012C8.50016 7.85345 8.2735 8.08012 8.00016 8.08012C7.72683 8.08012 7.50016 7.85345 7.50016 7.58012V7.44012C7.50016 6.66678 8.06683 6.28678 8.28016 6.14012C8.52683 5.97345 8.60683 5.86012 8.60683 5.68678C8.60683 5.35345 8.3335 5.08012 8.00016 5.08012C7.66683 5.08012 7.3935 5.35345 7.3935 5.68678C7.3935 5.96012 7.16683 6.18678 6.8935 6.18678C6.62016 6.18678 6.3935 5.96012 6.3935 5.68678C6.3935 4.80012 7.1135 4.08012 8.00016 4.08012C8.88683 4.08012 9.60683 4.80012 9.60683 5.68678C9.60683 6.44678 9.04683 6.82678 8.84016 6.96678Z" fill="#C298F8"/>
</svg>
