<svg width="40" height="40" viewBox="0 0 40 40" fill="none" xmlns="http://www.w3.org/2000/svg">
<g clip-path="url(#clip0_183_6317)">
<path d="M20 40C31.0457 40 40 31.0457 40 20C40 8.9543 31.0457 0 20 0C8.9543 0 0 8.9543 0 20C0 31.0457 8.9543 40 20 40Z" fill="#181818"/>
<path d="M37.8728 28.9844C36.6363 31.4486 34.9035 33.6303 32.7833 35.3926C30.6631 37.1549 28.2012 38.4596 25.5525 39.2246C22.9038 39.9897 20.1254 40.1985 17.3921 39.8382C14.6588 39.4778 12.0295 38.5559 9.66963 37.1305C6.44044 35.1773 3.8266 32.3542 2.12744 28.9844C3.51574 26.229 5.52083 23.8309 7.98682 21.9766C8.26807 21.7646 8.55452 21.5602 8.84619 21.3633C9.11025 21.1862 9.379 21.0146 9.65244 20.8484C10.5538 20.3023 11.4971 19.8286 12.4735 19.432C12.6912 19.344 12.9113 19.2591 13.1337 19.1773C13.8243 18.9249 14.5286 18.7113 15.2431 18.5375C15.3712 18.5062 15.5001 18.4758 15.6298 18.4477C16.0907 18.3435 16.5577 18.2568 17.0306 18.1875C18.9022 17.9099 20.8036 17.8964 22.679 18.1477C23.1884 18.2159 23.6915 18.3031 24.1884 18.4094C25.1137 18.6059 26.0236 18.8691 26.911 19.1969C28.1248 19.644 29.292 20.2084 30.3962 20.882C30.6394 21.0294 30.8787 21.1826 31.1142 21.3414C31.4063 21.5367 31.6928 21.7398 31.9735 21.9508C34.4554 23.8077 36.4733 26.2144 37.8688 28.982L37.8728 28.9844Z" fill="#9747FF"/>
<path d="M21.5904 7.74365H18.4639V10.1655H21.5904V7.74365Z" fill="#32314B"/>
<path d="M21.5904 27.186H18.4639V28.929H21.5904V27.186Z" fill="#32314B"/>
<path d="M20.0273 9.30542C22.7781 9.30542 25.4163 10.3982 27.3614 12.3433C29.3065 14.2884 30.3992 16.9265 30.3992 19.6773V23.7765C30.3992 24.2071 30.2282 24.62 29.9237 24.9245C29.6193 25.2289 29.2063 25.4 28.7758 25.4H11.2797C10.8491 25.4 10.4362 25.2289 10.1317 24.9245C9.82729 24.62 9.65625 24.2071 9.65625 23.7765V19.6773C9.65625 16.9266 10.7489 14.2886 12.6938 12.3435C14.6388 10.3985 17.2767 9.30563 20.0273 9.30542ZM30.3828 37.0968C27.2634 38.9945 23.6837 40.0009 20.0324 40.0069C16.3812 40.0128 12.7982 39.0179 9.67266 37.1304C9.79872 34.8601 10.7718 32.7196 12.3995 31.132C14.0272 29.5443 16.1913 28.6249 18.4641 28.5554C18.5555 28.5554 18.6469 28.5507 18.7391 28.5507H21.3172C21.4094 28.5507 21.5008 28.5507 21.5922 28.5554C23.8594 28.6242 26.0188 29.539 27.6456 31.1196C29.2724 32.7003 30.2488 34.8325 30.3828 37.0968Z" fill="white"/>
<path d="M21.4344 28.5531C19.0449 28.5806 16.7627 29.5498 15.0836 31.2502C13.4045 32.9505 12.464 35.2446 12.4664 37.6343V38.532C11.4999 38.1387 10.5657 37.6701 9.67266 37.1304C9.79874 34.8601 10.7718 32.7198 12.3996 31.1322C14.0273 29.5447 16.1914 28.6254 18.4641 28.5562C18.5562 28.5562 18.6484 28.5515 18.7414 28.5515H21.3195C21.357 28.5515 21.3961 28.5515 21.4344 28.5531ZM12.4742 19.6773V23.7773C12.4744 24.2079 12.6456 24.6208 12.9502 24.9253C13.2548 25.2297 13.6678 25.4007 14.0984 25.4007H11.2797C10.8491 25.4007 10.4362 25.2297 10.1317 24.9252C9.82729 24.6208 9.65625 24.2078 9.65625 23.7773V19.6773C9.65715 18.1964 9.97495 16.7329 10.5883 15.385C11.2017 14.0371 12.0964 12.8361 13.2124 11.8627C14.3284 10.8892 15.6397 10.1659 17.0584 9.74126C18.4771 9.31661 19.9702 9.2005 21.4375 9.40071C18.9539 9.74133 16.6776 10.9699 15.0298 12.8591C13.382 14.7483 12.4742 17.1704 12.4742 19.6773Z" fill="#D8D8D8"/>
<path d="M6.18115 18.7017H8.16084C8.34338 18.7017 8.51845 18.7742 8.64753 18.9033C8.77661 19.0323 8.84912 19.2074 8.84912 19.3899V22.6563C8.84912 22.8389 8.77661 23.014 8.64753 23.143C8.51845 23.2721 8.34338 23.3446 8.16084 23.3446H6.18115C6.07189 23.3446 5.96369 23.3231 5.86275 23.2813C5.7618 23.2395 5.67008 23.1782 5.59282 23.1009C5.51556 23.0237 5.45427 22.9319 5.41246 22.831C5.37064 22.7301 5.34912 22.6219 5.34912 22.5126V19.5313C5.34974 19.3111 5.43768 19.1001 5.59364 18.9445C5.74961 18.789 5.96089 18.7017 6.18115 18.7017Z" fill="white"/>
<path d="M8.84922 19.3899V22.6603C8.84922 22.7507 8.83139 22.8403 8.79675 22.9238C8.76211 23.0074 8.71135 23.0833 8.64735 23.1472C8.58335 23.2111 8.50739 23.2618 8.42379 23.2964C8.34019 23.3309 8.25061 23.3486 8.16016 23.3485H7.30078C7.3912 23.3486 7.48074 23.3309 7.5643 23.2964C7.64785 23.2618 7.72377 23.2111 7.7877 23.1472C7.85163 23.0832 7.90233 23.0073 7.93688 22.9238C7.97143 22.8402 7.98917 22.7507 7.98906 22.6603V19.3899C7.98917 19.2995 7.97143 19.21 7.93688 19.1264C7.90233 19.0429 7.85163 18.967 7.7877 18.903C7.72377 18.8391 7.64785 18.7884 7.5643 18.7538C7.48074 18.7193 7.3912 18.7016 7.30078 18.7017H8.16016C8.25061 18.7016 8.34019 18.7193 8.42379 18.7538C8.50739 18.7884 8.58335 18.8391 8.64735 18.903C8.71135 18.9669 8.76211 19.0428 8.79675 19.1264C8.83139 19.2099 8.84922 19.2995 8.84922 19.3899Z" fill="#D8D8D8"/>
<path d="M33.7852 23.3485H31.8055C31.6229 23.3485 31.4479 23.276 31.3188 23.1469C31.1897 23.0178 31.1172 22.8427 31.1172 22.6602V19.3938C31.1172 19.2113 31.1897 19.0362 31.3188 18.9071C31.4479 18.778 31.6229 18.7055 31.8055 18.7055H33.7852C34.0058 18.7055 34.2175 18.7932 34.3735 18.9492C34.5295 19.1053 34.6172 19.3169 34.6172 19.5375V22.5188C34.6172 22.7395 34.5295 22.9511 34.3735 23.1071C34.2175 23.2632 34.0058 23.3508 33.7852 23.3508V23.3485Z" fill="white"/>
<path d="M31.1172 19.3892V22.6563C31.1171 22.7469 31.1348 22.8365 31.1694 22.9202C31.204 23.0038 31.2548 23.0798 31.3188 23.1438C31.3828 23.2078 31.4588 23.2586 31.5424 23.2932C31.6261 23.3278 31.7157 23.3455 31.8063 23.3454H32.6656C32.4829 23.3454 32.3076 23.2728 32.1784 23.1436C32.0492 23.0144 31.9766 22.8391 31.9766 22.6563V19.3892C31.9767 19.2988 31.9946 19.2093 32.0293 19.1258C32.0639 19.0424 32.1147 18.9665 32.1787 18.9027C32.2427 18.8389 32.3186 18.7882 32.4022 18.7538C32.4857 18.7193 32.5752 18.7016 32.6656 18.7017H31.8063C31.7158 18.7015 31.6263 18.7191 31.5427 18.7535C31.4591 18.788 31.3831 18.8386 31.3191 18.9025C31.2551 18.9663 31.2043 19.0422 31.1697 19.1257C31.135 19.2092 31.1172 19.2987 31.1172 19.3892Z" fill="#D8D8D8"/>
<path d="M16.9484 14.311H23.1063C24.1215 14.311 25.0952 14.7144 25.8132 15.4323C26.5311 16.1502 26.9344 17.1239 26.9344 18.1392V19.0204C26.9344 19.2757 26.833 19.5205 26.6525 19.701C26.472 19.8815 26.2272 19.9829 25.9719 19.9829H14.0875C13.9608 19.9829 13.8353 19.9579 13.7183 19.9093C13.6012 19.8607 13.495 19.7894 13.4055 19.6996C13.3161 19.6098 13.2453 19.5033 13.1971 19.386C13.149 19.2688 13.1245 19.1432 13.125 19.0165V18.1353C13.126 17.1215 13.5292 16.1495 14.246 15.4325C14.9627 14.7156 15.9347 14.3123 16.9484 14.311Z" fill="#32314B"/>
<path d="M15.2461 18.1353V19.0157C15.2461 19.2711 15.3475 19.516 15.528 19.6966C15.7084 19.8772 15.9533 19.9788 16.2086 19.979H14.0875C13.8322 19.9788 13.5873 19.8772 13.4069 19.6966C13.2264 19.516 13.125 19.2711 13.125 19.0157V18.1353C13.125 17.12 13.5283 16.1463 14.2462 15.4284C14.9641 14.7104 15.9378 14.3071 16.9531 14.3071H19.0703C18.0557 14.3082 17.083 14.7119 16.3659 15.4297C15.6489 16.1475 15.2461 17.1206 15.2461 18.1353Z" fill="#27273D"/>
<path d="M23.7023 21.8062H16.3531C15.7417 21.8062 15.2461 22.3018 15.2461 22.9132C15.2461 23.5246 15.7417 24.0202 16.3531 24.0202H23.7023C24.3137 24.0202 24.8094 23.5246 24.8094 22.9132C24.8094 22.3018 24.3137 21.8062 23.7023 21.8062Z" fill="#DB1B1B"/>
<path d="M17.7623 24.0202H16.3561C16.0625 24.0202 15.7809 23.9036 15.5733 23.696C15.3657 23.4884 15.249 23.2068 15.249 22.9132C15.249 22.6196 15.3657 22.338 15.5733 22.1304C15.7809 21.9228 16.0625 21.8062 16.3561 21.8062H17.7623C17.4687 21.8062 17.1871 21.9228 16.9795 22.1304C16.7719 22.338 16.6553 22.6196 16.6553 22.9132C16.6553 23.2068 16.7719 23.4884 16.9795 23.696C17.1871 23.9036 17.4687 24.0202 17.7623 24.0202Z" fill="#BC1919"/>
<path d="M16.1554 18.5656C16.825 18.5656 17.3679 18.0228 17.3679 17.3531C17.3679 16.6835 16.825 16.1406 16.1554 16.1406C15.4857 16.1406 14.9429 16.6835 14.9429 17.3531C14.9429 18.0228 15.4857 18.5656 16.1554 18.5656Z" fill="white"/>
<path d="M23.5968 18.5656C24.2664 18.5656 24.8093 18.0228 24.8093 17.3531C24.8093 16.6835 24.2664 16.1406 23.5968 16.1406C22.9271 16.1406 22.3843 16.6835 22.3843 17.3531C22.3843 18.0228 22.9271 18.5656 23.5968 18.5656Z" fill="white"/>
<path d="M36.8635 19.8774C36.6173 19.8775 36.3776 19.9567 36.18 20.1034C35.9823 20.2502 35.8371 20.4566 35.7658 20.6923H34.2244C34.1361 20.6923 34.0515 20.7274 33.9891 20.7898C33.9267 20.8522 33.8916 20.9368 33.8916 21.0251C33.8916 21.1134 33.9267 21.198 33.9891 21.2604C34.0515 21.3228 34.1361 21.3579 34.2244 21.3579H35.7658C35.8275 21.5614 35.9445 21.7438 36.1038 21.8847C36.2631 22.0256 36.4583 22.1195 36.6679 22.1558C36.8774 22.1922 37.0929 22.1697 37.2903 22.0907C37.4878 22.0117 37.6594 21.8794 37.7861 21.7086C37.9127 21.5378 37.9894 21.3351 38.0076 21.1233C38.0258 20.9114 37.9848 20.6986 37.8891 20.5087C37.7934 20.3188 37.6468 20.1592 37.4657 20.0477C37.2846 19.9363 37.0761 19.8773 36.8635 19.8774Z" fill="white"/>
<path d="M37.1649 22.1376C36.9955 22.1805 36.8186 22.1842 36.6476 22.1484C36.4766 22.1125 36.316 22.0381 36.1782 21.9308C36.0403 21.8235 35.9287 21.6861 35.852 21.5292C35.7752 21.3722 35.7354 21.1998 35.7354 21.0251C35.7354 20.8504 35.7752 20.678 35.852 20.521C35.9287 20.3641 36.0403 20.2267 36.1782 20.1194C36.316 20.0121 36.4766 19.9377 36.6476 19.9018C36.8186 19.866 36.9955 19.8697 37.1649 19.9126C36.9174 19.9753 36.6979 20.1188 36.5411 20.3203C36.3843 20.5217 36.2991 20.7698 36.2991 21.0251C36.2991 21.2804 36.3843 21.5284 36.5411 21.7299C36.6979 21.9314 36.9174 22.0749 37.1649 22.1376Z" fill="#D8D8D8"/>
<path d="M22.3516 5.55396V7.53364C22.3516 7.71619 22.279 7.89125 22.15 8.02033C22.0209 8.14941 21.8458 8.22192 21.6633 8.22192H18.393C18.2104 8.22192 18.0354 8.14941 17.9063 8.02033C17.7772 7.89125 17.7047 7.71619 17.7047 7.53364V5.55396C17.7057 5.3341 17.7937 5.12359 17.9495 4.96842C18.1052 4.81325 18.3161 4.72603 18.5359 4.72583H21.5195C21.7395 4.72583 21.9506 4.81295 22.1065 4.96814C22.2624 5.12334 22.3505 5.33396 22.3516 5.55396Z" fill="white"/>
<path d="M18.3924 8.22178H21.6627C21.8454 8.22178 22.0207 8.14918 22.1499 8.01996C22.2792 7.89073 22.3518 7.71547 22.3518 7.53271V6.67334C22.3518 6.85609 22.2792 7.03136 22.1499 7.16058C22.0207 7.28981 21.8454 7.3624 21.6627 7.3624H18.3924C18.3019 7.3624 18.2124 7.34457 18.1288 7.30994C18.0453 7.2753 17.9693 7.22453 17.9054 7.16053C17.8415 7.09654 17.7908 7.02057 17.7563 6.93697C17.7217 6.85338 17.704 6.76379 17.7041 6.67334V7.53271C17.704 7.62317 17.7217 7.71275 17.7563 7.79635C17.7908 7.87994 17.8415 7.95591 17.9054 8.01991C17.9693 8.0839 18.0453 8.13467 18.1288 8.16931C18.2124 8.20395 18.3019 8.22178 18.3924 8.22178Z" fill="#D8D8D8"/>
<path d="M18.8804 2.47584C18.8802 2.72196 18.9593 2.96159 19.1059 3.15927C19.2525 3.35696 19.4589 3.5022 19.6944 3.5735V5.11491C19.6944 5.20317 19.7295 5.28782 19.7919 5.35024C19.8543 5.41265 19.939 5.44772 20.0273 5.44772C20.1155 5.44772 20.2002 5.41265 20.2626 5.35024C20.325 5.28782 20.3601 5.20317 20.3601 5.11491V3.5735C20.5635 3.51179 20.7459 3.39474 20.8867 3.2354C21.0275 3.07607 21.1212 2.88073 21.1574 2.6712C21.1936 2.46167 21.1708 2.24621 21.0916 2.04887C21.0124 1.85154 20.88 1.6801 20.709 1.55371C20.538 1.42732 20.3352 1.35095 20.1233 1.33313C19.9115 1.31532 19.6988 1.35676 19.5091 1.45282C19.3194 1.54889 19.1602 1.6958 19.0491 1.87714C18.9381 2.05848 18.8797 2.26712 18.8804 2.47975V2.47584Z" fill="white"/>
<path d="M21.1404 2.17432C21.1831 2.34361 21.1865 2.5204 21.1505 2.69123C21.1146 2.86206 21.0401 3.02243 20.9328 3.16013C20.8254 3.29783 20.6881 3.40923 20.5313 3.48586C20.3744 3.56248 20.2021 3.60231 20.0275 3.60231C19.853 3.60231 19.6807 3.56248 19.5238 3.48586C19.367 3.40923 19.2296 3.29783 19.1223 3.16013C19.015 3.02243 18.9405 2.86206 18.9045 2.69123C18.8685 2.5204 18.872 2.34361 18.9146 2.17432C18.9777 2.42165 19.1213 2.64095 19.3228 2.79758C19.5243 2.95421 19.7723 3.03923 20.0275 3.03923C20.2828 3.03923 20.5307 2.95421 20.7323 2.79758C20.9338 2.64095 21.0774 2.42165 21.1404 2.17432Z" fill="#D8D8D8"/>
<path d="M3.44912 22.1728C3.69531 22.1727 3.93495 22.0935 4.13262 21.9468C4.3303 21.8 4.4755 21.5936 4.54678 21.3579H6.08818C6.17645 21.3579 6.2611 21.3228 6.32352 21.2604C6.38593 21.198 6.421 21.1134 6.421 21.0251C6.421 20.9368 6.38593 20.8522 6.32352 20.7898C6.2611 20.7273 6.17645 20.6923 6.08818 20.6923H4.54678C4.48511 20.4888 4.36811 20.3064 4.20883 20.1655C4.04955 20.0246 3.85425 19.9307 3.64473 19.8944C3.43521 19.858 3.21971 19.8805 3.02226 19.9595C2.82481 20.0385 2.65319 20.1708 2.52653 20.3416C2.39988 20.5124 2.32318 20.7151 2.30499 20.9269C2.2868 21.1388 2.32783 21.3516 2.42351 21.5415C2.5192 21.7314 2.66576 21.891 2.84686 22.0025C3.02796 22.1139 3.23647 22.1729 3.44912 22.1728Z" fill="white"/>
<path d="M3.14746 19.9126C3.31682 19.8697 3.49375 19.866 3.66475 19.9018C3.83575 19.9377 3.99631 20.0121 4.13419 20.1194C4.27207 20.2267 4.38363 20.3641 4.46037 20.521C4.53711 20.678 4.577 20.8504 4.577 21.0251C4.577 21.1998 4.53711 21.3722 4.46037 21.5292C4.38363 21.6861 4.27207 21.8235 4.13419 21.9308C3.99631 22.0381 3.83575 22.1125 3.66475 22.1484C3.49375 22.1842 3.31682 22.1805 3.14746 22.1376C3.39496 22.0749 3.61448 21.9314 3.77129 21.7299C3.92809 21.5284 4.01323 21.2804 4.01323 21.0251C4.01323 20.7698 3.92809 20.5217 3.77129 20.3203C3.61448 20.1188 3.39496 19.9753 3.14746 19.9126Z" fill="#D8D8D8"/>
<path d="M24.2384 25.4009V25.6173C24.2385 25.8623 24.1903 26.105 24.0966 26.3315C24.0029 26.5579 23.8655 26.7637 23.6922 26.937C23.519 27.1103 23.3133 27.2478 23.0869 27.3416C22.8605 27.4354 22.6178 27.4837 22.3728 27.4837H17.6853C17.4401 27.4838 17.1974 27.4356 16.9709 27.3418C16.7444 27.2481 16.5386 27.1106 16.3653 26.9373C16.1919 26.7639 16.0545 26.5581 15.9607 26.3316C15.867 26.1052 15.8187 25.8624 15.8188 25.6173V25.4009H24.2384Z" fill="#AA60FA"/>
<path d="M24.2385 25.4009V25.6173C24.239 25.8695 24.188 26.1191 24.0885 26.3509H15.9674C15.8679 26.1191 15.8168 25.8695 15.8174 25.6173V25.4009H24.2385Z" fill="#984EF9"/>
</g>
<defs>
<clipPath id="clip0_183_6317">
<rect width="40" height="40" fill="white"/>
</clipPath>
</defs>
</svg>
