<svg width="16" height="16" viewBox="0 0 16 16" fill="none" xmlns="http://www.w3.org/2000/svg">
<path d="M5.59326 12.3267V5.5534C5.59326 5.28673 5.67326 5.02673 5.81993 4.80673L7.63993 2.10006C7.92659 1.66673 8.63993 1.36006 9.24659 1.58673C9.89993 1.80673 10.3333 2.54006 10.1933 3.1934L9.84659 5.3734C9.81993 5.5734 9.87326 5.7534 9.98659 5.8934C10.0999 6.02007 10.2666 6.10006 10.4466 6.10006H13.1866C13.7133 6.10006 14.1666 6.3134 14.4333 6.68673C14.6866 7.04673 14.7333 7.5134 14.5666 7.98673L12.9266 12.9801C12.7199 13.8067 11.8199 14.4801 10.9266 14.4801H8.32659C7.87993 14.4801 7.25326 14.3267 6.96659 14.0401L6.11326 13.3801C5.78659 13.1334 5.59326 12.7401 5.59326 12.3267Z" fill="#C298F8"/>
<path d="M3.4735 4.25342H2.78683C1.7535 4.25342 1.3335 4.65342 1.3335 5.64008V12.3468C1.3335 13.3334 1.7535 13.7334 2.78683 13.7334H3.4735C4.50683 13.7334 4.92683 13.3334 4.92683 12.3468V5.64008C4.92683 4.65342 4.50683 4.25342 3.4735 4.25342Z" fill="#C298F8"/>
</svg>
