<svg width="14" height="15" viewBox="0 0 14 15" fill="none" xmlns="http://www.w3.org/2000/svg">
<path d="M12.5124 8.45671V9.04004C12.5124 9.19754 12.3899 9.32587 12.2266 9.33171H11.3749C11.0658 9.33171 10.7858 9.10421 10.7624 8.80087C10.7449 8.62004 10.8149 8.45087 10.9316 8.33421C11.0366 8.22337 11.1824 8.16504 11.3399 8.16504H12.2208C12.3899 8.17087 12.5124 8.29921 12.5124 8.45671Z" fill="#888888"/>
<path d="M10.4942 7.90262C10.2025 8.18845 10.0625 8.61429 10.1792 9.05762C10.3309 9.60012 10.8617 9.94429 11.4217 9.94429H11.9292C12.25 9.94429 12.5125 10.2068 12.5125 10.5276V10.6385C12.5125 11.846 11.5267 12.8318 10.3192 12.8318H3.62253C2.41503 12.8318 1.4292 11.846 1.4292 10.6385V6.71262C1.4292 5.99512 1.77337 5.35929 2.3042 4.96262C2.6717 4.68262 3.1267 4.51929 3.62253 4.51929H10.3192C11.5267 4.51929 12.5125 5.50512 12.5125 6.71262V6.96929C12.5125 7.29012 12.25 7.55262 11.9292 7.55262H11.3342C11.0075 7.55262 10.71 7.68095 10.4942 7.90262Z" fill="#888888"/>
<path d="M9.45012 3.31175C9.60762 3.46925 9.47345 3.71425 9.25178 3.71425L4.77178 3.70841C4.51512 3.70841 4.38095 3.39341 4.56762 3.21258L5.51262 2.26175C6.31178 1.46841 7.60678 1.46841 8.40595 2.26175L9.42678 3.29425C9.43262 3.30008 9.44428 3.30591 9.45012 3.31175Z" fill="#888888"/>
</svg>
